<svg xmlns="http://www.w3.org/2000/svg" viewBox="0 0 64 10.1"><path d="M3.6.1H0v4.1l2.4 2.2v-4h1.3c.8 0 1.2.4 1.2 1v3a1.08 1.08 0 01-1.2 1.1H0v2.3h3.6c1.9 0 3.7-1 3.7-3.2V3.4C7.3 1.1 5.5.1 3.6.1zm18.7 6.6V3.3c0-1.2 2.1-1.5 2.8-.3l2-.8A3.6 3.6 0 0023.7 0c-1.9 0-3.8 1.1-3.8 3.3v3.3c0 2.2 1.9 3.3 3.8 3.3a3.77 3.77 0 003.4-2.2l-2.1-1c-.5 1.5-2.7 1.1-2.7 0zm-6.5-2.9c-.7-.2-1.2-.4-1.3-.9 0-1.1 1.8-1.2 2.8-.1l1.6-1.2A4 4 0 0015.6 0c-1.8 0-3.5 1-3.5 2.9S13.5 5.7 15 6c.8.1 1.7.4 1.6 1-.1 1-2.2 1-3.1-.2L12 8.3a4.15 4.15 0 003.3 1.8c1.8 0 3.7-1 3.8-2.9.1-2.5-1.6-3.1-3.3-3.4zM8.6 9.9H11V.1H8.6zM49.3.1h-3.6v4.1l2.4 2.2v-4h1.3c.8 0 1.2.4 1.2 1v3a1.08 1.08 0 01-1.2 1.1h-3.7v2.3h3.6c1.9 0 3.7-1 3.7-3.2V3.4C53 1.1 51.2.1 49.3.1zM31.7 0c-2 0-4 1.1-4 3.3v3.3c0 2.2 2 3.3 4 3.3s4-1.1 4-3.3V3.3c0-2.2-2-3.3-4-3.3zm1.6 6.7c0 .7-.8 1.1-1.5 1.1s-1.6-.3-1.6-1.1V3.3c0-.7.8-1.1 1.5-1.1s1.6.3 1.6 1.1zm11.1-3.4C44.3 1 42.8.1 40.8.1H37v9.7h2.4v-3h.4L42 9.9h3l-2.6-3.3c1.2-.4 2-1.5 2-3.3zm-3.6 1.4h-1.4V2.4h1.4a1.15 1.15 0 110 2.3zM54.3 3.8H64v2.1h-9.7z"/><path d="M58.1 0h2.1v9.7h-2.1z"/></svg>
