<svg xmlns="http://www.w3.org/2000/svg" viewBox="0 0 65 16"><style>.st0{fill:#fff}</style><path class="st0" d="M4.6 3.1H1v4.1l2.4 2.2v-4h1.3c.8 0 1.2.4 1.2 1v3c0 .6-.4 1.1-1.2 1.1H1v2.3h3.6c1.9 0 3.7-1 3.7-3.2V6.4c0-2.3-1.8-3.3-3.7-3.3zm18.7 6.6V6.3c0-1.2 2.1-1.5 2.8-.3l2-.8C27.3 3.5 25.9 3 24.7 3c-1.9 0-3.8 1.1-3.8 3.3v3.3c0 2.2 1.9 3.3 3.8 3.3 1.2 0 2.6-.6 3.4-2.2l-2.1-1c-.5 1.5-2.7 1.1-2.7 0zm-6.5-2.9c-.7-.2-1.2-.4-1.3-.9 0-1.1 1.8-1.2 2.8-.1l1.6-1.2c-1-1.2-2.1-1.6-3.3-1.6-1.8 0-3.5 1-3.5 2.9S14.5 8.7 16 9c.8.1 1.7.4 1.6 1-.1 1-2.2 1-3.1-.2L13 11.3c.9 1.2 2.1 1.8 3.3 1.8 1.8 0 3.7-1 3.8-2.9.1-2.5-1.6-3.1-3.3-3.4zm-7.2 6.1H12V3.1H9.6v9.8zm40.7-9.8h-3.6v4.1l2.4 2.2v-4h1.3c.8 0 1.2.4 1.2 1v3c0 .6-.4 1.1-1.2 1.1h-3.7v2.3h3.6c1.9 0 3.7-1 3.7-3.2V6.4c0-2.3-1.8-3.3-3.7-3.3zM32.7 3c-2 0-4 1.1-4 3.3v3.3c0 2.2 2 3.3 4 3.3s4-1.1 4-3.3V6.3c0-2.2-2-3.3-4-3.3zm1.6 6.7c0 .7-.8 1.1-1.5 1.1-.8 0-1.6-.3-1.6-1.1V6.3c0-.7.8-1.1 1.5-1.1.8 0 1.6.3 1.6 1.1v3.4zm11.1-3.4c-.1-2.3-1.6-3.2-3.6-3.2H38v9.7h2.4v-3h.4l2.2 3.1h3l-2.6-3.3c1.2-.4 2-1.5 2-3.3zm-3.6 1.4h-1.4V5.4h1.4c1.6 0 1.6 2.3 0 2.3zM55.3 6.8H65v2.1h-9.7z"/><path class="st0" d="M59.1 3h2.1v9.7h-2.1z"/></svg>
