<svg xmlns="http://www.w3.org/2000/svg" viewBox="0 0 64 10.1"><title>wordmark_black</title><path d="M4.6,3.1H1V7.2L3.4,9.4v-4H4.7c.8,0,1.2.4,1.2,1v3a1.08,1.08,0,0,1-1.2,1.1H1v2.3H4.6c1.9,0,3.7-1,3.7-3.2V6.4C8.3,4.1,6.5,3.1,4.6,3.1ZM23.3,9.7V6.3c0-1.2,2.1-1.5,2.8-.3l2-.8A3.6,3.6,0,0,0,24.7,3c-1.9,0-3.8,1.1-3.8,3.3V9.6c0,2.2,1.9,3.3,3.8,3.3a3.77,3.77,0,0,0,3.4-2.2L26,9.7C25.5,11.2,23.3,10.8,23.3,9.7ZM16.8,6.8c-.7-.2-1.2-.4-1.3-.9,0-1.1,1.8-1.2,2.8-.1l1.6-1.2A4,4,0,0,0,16.6,3c-1.8,0-3.5,1-3.5,2.9S14.5,8.7,16,9c.8.1,1.7.4,1.6,1-.1,1-2.2,1-3.1-.2L13,11.3a4.15,4.15,0,0,0,3.3,1.8c1.8,0,3.7-1,3.8-2.9C20.2,7.7,18.5,7.1,16.8,6.8ZM9.6,12.9H12V3.1H9.6ZM50.3,3.1H46.7V7.2l2.4,2.2v-4h1.3c.8,0,1.2.4,1.2,1v3a1.08,1.08,0,0,1-1.2,1.1H46.7v2.3h3.6c1.9,0,3.7-1,3.7-3.2V6.4C54,4.1,52.2,3.1,50.3,3.1ZM32.7,3c-2,0-4,1.1-4,3.3V9.6c0,2.2,2,3.3,4,3.3s4-1.1,4-3.3V6.3C36.7,4.1,34.7,3,32.7,3Zm1.6,6.7c0,.7-.8,1.1-1.5,1.1s-1.6-.3-1.6-1.1V6.3c0-.7.8-1.1,1.5-1.1s1.6.3,1.6,1.1ZM45.4,6.3c-.1-2.3-1.6-3.2-3.6-3.2H38v9.7h2.4v-3h.4L43,12.9h3L43.4,9.6C44.6,9.2,45.4,8.1,45.4,6.3ZM41.8,7.7H40.4V5.4h1.4A1.15,1.15,0,1,1,41.8,7.7Z" transform="translate(-1 -3)"/><rect x="54.3" y="3.8" width="9.7" height="2.1"/><rect x="58.1" width="2.1" height="9.7"/></svg>