<svg xmlns="http://www.w3.org/2000/svg" xmlns:xlink="http://www.w3.org/1999/xlink" viewBox="0 0 65 16" style="enable-background:new 0 0 65 16;" xml:space="preserve"><style type="text/css">
	.st0{fill:#FFFFFF;}
</style><path class="st0" d="M4.6,3.1H1v4.1l2.4,2.2v-4h1.3c0.8,0,1.2,0.4,1.2,1v3c0,0.6-0.4,1.1-1.2,1.1H1v2.3h3.6c1.9,0,3.7-1,3.7-3.2V6.4
	C8.3,4.1,6.5,3.1,4.6,3.1z M23.3,9.7V6.3c0-1.2,2.1-1.5,2.8-0.3l2-0.8C27.3,3.5,25.9,3,24.7,3c-1.9,0-3.8,1.1-3.8,3.3v3.3
	c0,2.2,1.9,3.3,3.8,3.3c1.2,0,2.6-0.6,3.4-2.2l-2.1-1C25.5,11.2,23.3,10.8,23.3,9.7z M16.8,6.8c-0.7-0.2-1.2-0.4-1.3-0.9
	c0-1.1,1.8-1.2,2.8-0.1l1.6-1.2c-1-1.2-2.1-1.6-3.3-1.6c-1.8,0-3.5,1-3.5,2.9S14.5,8.7,16,9c0.8,0.1,1.7,0.4,1.6,1
	c-0.1,1-2.2,1-3.1-0.2L13,11.3c0.9,1.2,2.1,1.8,3.3,1.8c1.8,0,3.7-1,3.8-2.9C20.2,7.7,18.5,7.1,16.8,6.8z M9.6,12.9H12V3.1H9.6V12.9
	z M50.3,3.1h-3.6v4.1l2.4,2.2v-4h1.3c0.8,0,1.2,0.4,1.2,1v3c0,0.6-0.4,1.1-1.2,1.1h-3.7v2.3h3.6c1.9,0,3.7-1,3.7-3.2V6.4
	C54,4.1,52.2,3.1,50.3,3.1z M32.7,3c-2,0-4,1.1-4,3.3v3.3c0,2.2,2,3.3,4,3.3s4-1.1,4-3.3V6.3C36.7,4.1,34.7,3,32.7,3z M34.3,9.7
	c0,0.7-0.8,1.1-1.5,1.1c-0.8,0-1.6-0.3-1.6-1.1V6.3c0-0.7,0.8-1.1,1.5-1.1c0.8,0,1.6,0.3,1.6,1.1C34.3,6.3,34.3,9.7,34.3,9.7z
	 M45.4,6.3c-0.1-2.3-1.6-3.2-3.6-3.2H38v9.7h2.4v-3h0.4l2.2,3.1h3l-2.6-3.3C44.6,9.2,45.4,8.1,45.4,6.3z M41.8,7.7h-1.4V5.4h1.4
	C43.4,5.4,43.4,7.7,41.8,7.7z"/><g><rect x="55.3" y="6.8" class="st0" width="9.7" height="2.1"/><rect x="59.1" y="3" class="st0" width="2.1" height="9.7"/></g></svg>
