<?xml version="1.0" encoding="UTF-8"?>
<svg enable-background="new 0 0 120 74" version="1.1" viewBox="0 0 120 74" xml:space="preserve" xmlns="http://www.w3.org/2000/svg">
<rect width="120" height="74" display="none" fill="#2F3136"/>
	<circle cx="12.6" cy="48.9" r="1.6" fill="#2F3136"/>
	<path d="m102.9 21.7c5-2.1-0.4 17.9-0.4 17.9l-4.6 6.5-1.3 2.3 2.7 9.9-1.1 9.8-3.1 1h-3.6l-1.5-36.4 11.8-11.2 1.1 0.2z" fill="#ff0"/>
	<path d="M52.4,23c0,0.2,0.1,0.4,0.1,0.6c0.6,5.1-3,11.6,3.9,8.4c7.1-3.3,9.9-4.1,9.9-4.1L59.2,12" fill="#ff0"/>
	<g transform="translate(1)">
		<polygon points="36.2 33.3 43.9 33.3 43.9 32.1 36.2 32.1" clip-rule="evenodd" fill="#B9BBBE" fill-rule="evenodd"/>
		<g transform="translate(0 .137)">
			<path d="m50.8 28l-3.5 5.2h1.4c3.4-2.2 7.4-3.4 11.7-3.4s8.3 1.3 11.7 3.4h1.4l-3.5-5.2h-19.2z" clip-rule="evenodd" fill="#72767D" fill-rule="evenodd"/>
			<path d="M91.7,51.8H82c0,1.2-0.1,2.4-0.4,3.6h10V51.8z" clip-rule="evenodd" fill="#36393F" fill-rule="evenodd"/>
			<path d="m91.7 57.3h-10.5c-1.2 4.2-3.7 7.9-6.9 10.6h17.5v-10.6zm-62.6-15.1v7.5h9.7c0.2-2.7 0.9-5.2 2-7.5h-11.7zm62.6 0h-2.2c-0.4 1.4-1.7 2.4-3.3 2.4-1.5 0-2.8-1-3.3-2.4h-3c1.1 2.3 1.8 4.8 2 7.5h9.7v-7.5zm-53 22.1c0 0.6-0.4 1-1 1h-5.7c-0.6 0-1-0.4-1-1v-3.2c0-0.6 0.4-1 1-1h5.7c0.6 0 1 0.4 1 1v3.2zm0.9-7h-10.5v10.7h17.5c-3.4-2.8-5.8-6.5-7-10.7z" clip-rule="evenodd" fill="#72767D" fill-rule="evenodd"/>
			<path d="m38.7 51.8h-9.7v3.6h10l-0.3-3.6" clip-rule="evenodd" fill="#36393F" fill-rule="evenodd"/>
			<path d="m74.7 35.2c1.7 1.5 3.1 3.2 4.2 5.1h4c0.4-1.4 1.7-2.4 3.3-2.4 1.5 0 2.8 1 3.3 2.4h2.2v-2.8c0-1.2-1-2.2-2.2-2.2h-14.8zm-32.9 5c1.1-1.9 2.6-3.6 4.2-5.1h-14.7c-1.2 0-2.2 1-2.2 2.2v2.8h12.7z" clip-rule="evenodd" fill="#B9BBBE" fill-rule="evenodd"/>
			<path d="m87.1 20.6c0.2 0 0.4-0.1 0.6-0.2l1-1c0.3-0.3 0.3-0.8 0-1.1s-0.8-0.3-1.1 0l-1 1c-0.3 0.3-0.3 0.8 0 1.1 0.1 0.2 0.3 0.2 0.5 0.2m-4.8 4.8c0.2 0 0.4-0.1 0.6-0.2l1-1c0.3-0.3 0.3-0.8 0-1.1s-0.8-0.3-1.1 0l-1 1c-0.3 0.3-0.3 0.8 0 1.1 0.1 0.1 0.3 0.2 0.5 0.2m5.2-0.2c0.2 0.2 0.4 0.2 0.6 0.2s0.4-0.1 0.6-0.2c0.3-0.3 0.3-0.8 0-1.1l-1-1c-0.3-0.3-0.8-0.3-1.1 0s-0.3 0.8 0 1.1l0.9 1zm-4.8-4.8c0.2 0.2 0.4 0.2 0.6 0.2s0.4-0.1 0.6-0.2c0.3-0.3 0.3-0.8 0-1.1l-1-1c-0.3-0.3-0.8-0.3-1.1 0s-0.3 0.8 0 1.1l0.9 1zm-71.1 27.1c0.7 0 1.2 0.5 1.2 1.2s-0.5 1.2-1.2 1.2-1.2-0.5-1.2-1.2 0.6-1.2 1.2-1.2m0 4.1c1.6 0 2.8-1.3 2.8-2.8 0-1.6-1.3-2.8-2.8-2.8-1.6 0-2.8 1.3-2.8 2.8s1.3 2.8 2.8 2.8m6.5-14.1h0.4c0.4 0 0.8 0.4 0.8 0.8v0.4c0 0.4 0.4 0.8 0.8 0.8s0.8-0.4 0.8-0.8v-0.4c0-0.4 0.4-0.8 0.8-0.8h0.4c0.4 0 0.8-0.4 0.8-0.8s-0.4-0.8-0.8-0.8h-0.4c-0.4 0-0.8-0.4-0.8-0.8v-0.4c0-0.4-0.4-0.8-0.8-0.8s-0.8 0.4-0.8 0.8v0.3c0 0.4-0.4 0.8-0.8 0.8h-0.4c-0.4 0-0.8 0.4-0.8 0.8s0.4 0.9 0.8 0.9m-5.7-4.9h0.4c0.4 0 0.8 0.4 0.8 0.8v0.4c0 0.4 0.4 0.8 0.8 0.8s0.8-0.4 0.8-0.8v-0.4c0-0.4 0.4-0.8 0.8-0.8h0.4c0.4 0 0.8-0.4 0.8-0.8s-0.4-0.8-0.8-0.8h-0.4c-0.4 0-0.8-0.4-0.8-0.8v-0.4c0-0.4-0.4-0.8-0.8-0.8s-0.8 0.4-0.8 0.8v0.4c0 0.4-0.4 0.8-0.8 0.8h-0.4c-0.4 0-0.8 0.4-0.8 0.8 0 0.5 0.4 0.8 0.8 0.8m96.1 18.2c0.4 0 0.8-0.4 0.8-0.8s-0.4-0.8-0.8-0.8h-0.4c-0.4 0-0.8-0.4-0.8-0.8v-0.4c0-0.4-0.4-0.8-0.8-0.8s-0.8 0.4-0.8 0.8v0.4c0 0.4-0.4 0.8-0.8 0.8h-0.4c-0.4 0-0.8 0.4-0.8 0.8s0.4 0.8 0.8 0.8h0.4c0.4 0 0.8 0.4 0.8 0.8v0.4c0 0.4 0.4 0.8 0.8 0.8s0.8-0.4 0.8-0.8v-0.4c0-0.4 0.4-0.8 0.8-0.8h0.4z" clip-rule="evenodd" fill-rule="evenodd"/>
			<g transform="translate(107 67)">
				<defs>
					<filter id="x" x=".6" y="1" width="11.1" height="2" filterUnits="userSpaceOnUse">
						<feColorMatrix values="1 0 0 0 0  0 1 0 0 0  0 0 1 0 0  0 0 0 1 0"/>
					</filter>
				</defs>
				<mask id="l" x="0.6" y="1" width="11.1" height="2" maskUnits="userSpaceOnUse">
					<g filter="url(#x)">
						<polygon points="11.8 1 11.8 3 0.6 3 0.6 1" clip-rule="evenodd" fill="#fff" fill-rule="evenodd"/>
					</g>
				</mask>
				<path d="m10.8 1h-9.2c-0.6 0-1 0.4-1 1s0.4 1 1 1h9.1c0.6 0 1-0.4 1-1s-0.4-1-0.9-1" clip-rule="evenodd" fill-rule="evenodd" mask="url(#l)"/>
			</g>
			<defs>
				<filter id="u" x="0" y=".9" width="112.7" height="72.1" filterUnits="userSpaceOnUse">
					<feColorMatrix values="1 0 0 0 0  0 1 0 0 0  0 0 1 0 0  0 0 0 1 0"/>
				</filter>
			</defs>
			<mask id="k" x="0" y="0.9" width="112.7" height="72.1" maskUnits="userSpaceOnUse">
				<g filter="url(#u)">
					<polygon points="56.3 73 0 73 0 0.9 112.7 0.9 112.7 73" clip-rule="evenodd" fill="#fff" fill-rule="evenodd"/>
				</g>
			</mask>
			<path d="m53 26c-0.1-0.1-0.1-0.3-0.2-0.4l5.3-11.6c2.3 4.1 4.2 8.4 5.6 12h-10.7zm28.2 31.3h8.3c1.2 0 2.2 1 2.2 2.2v6.2c0 1.2-1 2.2-2.2 2.2h-15.3c3.3-2.7 5.8-6.4 7-10.6zm-40.5-5.9c0-10.8 8.8-19.6 19.6-19.6s19.7 8.7 19.7 19.6-8.8 19.6-19.6 19.6-19.7-8.8-19.7-19.6zm-9.4 5.9h8.3c1.2 4.2 3.7 7.9 6.9 10.6h-15.2c-1.2 0-2.2-1-2.2-2.2v-6.2c0-1.2 1-2.2 2.2-2.2zm58.1-22.1c1.2 0 2.2 1 2.2 2.2v2.8h-2.2c-0.4-1.4-1.7-2.4-3.3-2.4-1.5 0-2.8 1-3.3 2.4h-4c-1.1-1.9-2.6-3.6-4.2-5.1h14.8zm-5.7 16.6h6.3c1 0 1.8 0.8 1.8 1.8s-0.8 1.8-1.8 1.8h-6.3c-1 0-1.8-0.9-1.7-1.9 0-1.1 0.8-1.7 1.7-1.7zm1.1-10.6c0-0.8 0.6-1.4 1.4-1.4s1.4 0.6 1.4 1.4-0.6 1.4-1.4 1.4c-0.8 0.1-1.4-0.6-1.4-1.4zm-2.9 8.6c-0.2-2.7-0.9-5.2-2-7.5h3c0.4 1.4 1.7 2.4 3.3 2.4 1.5 0 2.8-1 3.3-2.4 1.2 0 2.2 1 2.2 2.2v5.3h-9.8zm-51.1 2h6.3c0.9 0 1.7 0.7 1.7 1.6 0.1 1-0.7 1.9-1.7 1.9h-6.3c-1 0-1.8-0.8-1.8-1.8 0.1-1 0.9-1.7 1.8-1.7zm-1.7-2v-5.3c0-1.2 1-2.2 2.2-2.2h9.5c-1.1 2.3-1.8 4.8-2 7.5h-9.7zm38.7-21.8c1.3 0 2.6 0.7 3.3 1.8l2.3 3.4h-1.4c-3.4-2.2-7.4-3.4-11.7-3.4s-8.3 1.3-11.7 3.4h-1.4l2.3-3.4c0.7-1.1 2-1.8 3.3-1.8h15zm-31.6 5.2h7.7v-1.2h-7.7v1.2zm-4.9 2h14.7c-1.7 1.5-3.1 3.2-4.2 5.1h-12.7v-2.8c0-1.3 1-2.3 2.2-2.3zm68.5-11.8s0.2 17.5 0.2 17.6c-1.6 2.3-3.4 4.5-5.5 6.5-0.3 0.3-0.4 0.8-0.2 1.2 0 0.1 4.8 8.6 1.3 19.3h-1.9v-30.6c0-2.3-1.8-4.1-4.1-4.2 2.5-2.9 6-6.6 10.2-9.8zm3.8 44.6h-1c-2.4 0-4.3-2.2-4-4.6 0.9-7.4-1.4-13.1-2.3-15.1 12.7-12.6 16.1-31.5 16.3-32.3 0.1-0.3-0.1-0.7-0.3-0.9-0.3-0.2-0.6-0.3-0.9-0.2-9.4 2.7-17.5 10.3-22.5 16-1.3 1.4-3.1 2.3-5 2.3h-5.4c-1.7 0-3.2-0.8-4.2-2.2l-3-4.5c-0.2-0.3-0.5-0.4-0.8-0.4h-2.9c-1 0-1.9-0.6-2.3-1.5-1.6-3.9-3.8-8.6-6.3-12.9 0-0.2-0.1-0.3-0.3-0.5-2.5-4.2-5.4-7.9-8.5-10-0.3-0.2-0.7-0.2-1-0.1s-0.5 0.5-0.6 0.8c-0.1 0.7-1.5 14.9 2.2 24.2h-0.5c-0.3 0-0.6 0.2-0.8 0.4l-3.5 5.2v-0.7c0-0.6-0.4-1-1-1h-9.7c-0.6 0-1 0.4-1 1v2.2h-2.9c-2.3 0-4.2 1.9-4.2 4.2v26.6c0 2.2-1.8 4-4 4h-22.2c-0.6 0-1 0.4-1 1s0.4 1 1 1h48.4c3.2 1.9 7 3 11 3s7.8-1.1 11-3h32.2c0.6 0 1-0.4 1-1s-0.4-1-1-1z" clip-rule="evenodd" fill-rule="evenodd" mask="url(#k)"/>
			<defs>
				<filter id="t" x="33.1" y="62.1" width="3.7" filterUnits="userSpaceOnUse">
					<feColorMatrix values="1 0 0 0 0  0 1 0 0 0  0 0 1 0 0  0 0 0 1 0"/>
				</filter>
			</defs>
			<mask id="i" x="33.1" y="62.1" width="3.7" maskUnits="userSpaceOnUse">
				<g filter="url(#t)">
					<polygon points="0 73 118.8 73 118.8 0.9 0 0.9" clip-rule="evenodd" fill="#fff" fill-rule="evenodd"/>
				</g>
			</mask>
			<polygon points="33.1 63.3 36.7 63.3 36.7 62.1 33.1 62.1" clip-rule="evenodd" fill="#F7F7F8" fill-rule="evenodd" mask="url(#i)"/>
			<defs>
				<filter id="s" x="84.8" y="39.8" width="2.9" height="2.9" filterUnits="userSpaceOnUse">
					<feColorMatrix values="1 0 0 0 0  0 1 0 0 0  0 0 1 0 0  0 0 0 1 0"/>
				</filter>
			</defs>
			<mask id="h" x="84.8" y="39.8" width="2.9" height="2.9" maskUnits="userSpaceOnUse">
				<g filter="url(#s)">
					<polygon points="0 73 118.8 73 118.8 0.9 0 0.9" clip-rule="evenodd" fill="#fff" fill-rule="evenodd"/>
				</g>
			</mask>
			<path d="m86.2 42.7c0.8 0 1.4-0.6 1.4-1.4s-0.6-1.4-1.4-1.4-1.4 0.6-1.4 1.4 0.6 1.4 1.4 1.4" clip-rule="evenodd" fill="#F7F7F8" fill-rule="evenodd" mask="url(#h)"/>
			<defs>
				<filter id="r" x="31.1" y="60.1" width="7.7" height="5.2" filterUnits="userSpaceOnUse">
					<feColorMatrix values="1 0 0 0 0  0 1 0 0 0  0 0 1 0 0  0 0 0 1 0"/>
				</filter>
			</defs>
			<mask id="g" x="31.1" y="60.1" width="7.7" height="5.2" maskUnits="userSpaceOnUse">
				<g filter="url(#r)">
					<polygon points="0 73 118.8 73 118.8 0.9 0 0.9" clip-rule="evenodd" fill="#fff" fill-rule="evenodd"/>
				</g>
			</mask>
			<path d="m33.1 63.3h3.7v-1.2h-3.7v1.2zm4.6-3.2h-5.7c-0.6 0-1 0.4-1 1v3.2c0 0.6 0.4 1 1 1h5.7c0.6 0 1-0.4 1-1v-3.2c0-0.6-0.4-1-1-1z" clip-rule="evenodd" fill-rule="evenodd" mask="url(#g)"/>
			<defs>
				<filter id="q" x="40.7" y="31.7" width="39.3" height="39.3" filterUnits="userSpaceOnUse">
					<feColorMatrix values="1 0 0 0 0  0 1 0 0 0  0 0 1 0 0  0 0 0 1 0"/>
				</filter>
			</defs>
			<mask id="f" x="40.7" y="31.7" width="39.3" height="39.3" maskUnits="userSpaceOnUse">
				<g filter="url(#q)">
					<polygon points="0 73 118.8 73 118.8 0.9 0 0.9" clip-rule="evenodd" fill="#fff" fill-rule="evenodd"/>
				</g>
			</mask>
			<path d="m53.8 67.7c-0.5-0.2-0.8-0.8-0.6-1.3-0.5-0.2-0.9-0.5-1.4-0.7-0.2 0.3-0.5 0.4-0.8 0.4-0.2 0-0.4-0.1-0.6-0.2-1.6-1.1-2.9-2.4-4.1-3.9-0.3-0.4-0.3-1.1 0.2-1.4-0.3-0.5-0.6-0.9-0.9-1.4-0.5 0.2-1.1 0-1.3-0.5-1.1-2.3-1.6-4.8-1.6-7.4 0-9.7 7.9-17.6 17.6-17.6s17.7 8 17.7 17.7-7.9 17.6-17.6 17.6c-2.3 0-4.5-0.5-6.6-1.3m6.6 3.3c10.8 0 19.6-8.8 19.6-19.6s-8.8-19.6-19.6-19.6-19.6 8.8-19.6 19.6 8.7 19.6 19.6 19.6" clip-rule="evenodd" fill="#36393F" fill-rule="evenodd" mask="url(#f)"/>
			<defs>
				<filter id="p" x="44.8" y="35.8" width="31.2" height="31.2" filterUnits="userSpaceOnUse">
					<feColorMatrix values="1 0 0 0 0  0 1 0 0 0  0 0 1 0 0  0 0 0 1 0"/>
				</filter>
			</defs>
			<mask id="e" x="44.8" y="35.8" width="31.2" height="31.2" maskUnits="userSpaceOnUse">
				<g filter="url(#p)">
					<polygon points="0 73 118.8 73 118.8 0.9 0 0.9" clip-rule="evenodd" fill="#fff" fill-rule="evenodd"/>
				</g>
			</mask>
			<path d="m50.1 51.4c0-5.7 4.6-10.3 10.3-10.3s10.3 4.6 10.3 10.3-4.6 10.3-10.3 10.3-10.3-4.7-10.3-10.3m4.5 14.4c1.8 0.7 3.8 1.1 5.8 1.1 8.6 0.1 15.6-6.9 15.6-15.5s-7-15.6-15.6-15.6-15.6 7-15.6 15.6c0 2.3 0.5 4.5 1.5 6.6 0.2 0.5 0 1.1-0.5 1.3 0.3 0.5 0.5 1 0.9 1.4 0.4-0.3 1-0.2 1.4 0.2 1 1.3 2.2 2.5 3.6 3.4 0.4 0.3 0.6 0.9 0.3 1.3 0.5 0.3 0.9 0.5 1.4 0.7 0.1-0.4 0.7-0.7 1.2-0.5" clip-rule="evenodd" fill="#4F545C" fill-rule="evenodd" mask="url(#e)"/>
			<defs>
				<filter id="o" x="42.8" y="33.8" width="35.2" height="35.2" filterUnits="userSpaceOnUse">
					<feColorMatrix values="1 0 0 0 0  0 1 0 0 0  0 0 1 0 0  0 0 0 1 0"/>
				</filter>
			</defs>
			<mask id="d" x="42.8" y="33.8" width="35.2" height="35.2" maskUnits="userSpaceOnUse">
				<g filter="url(#o)">
					<polygon points="0 73 118.8 73 118.8 0.9 0 0.9" clip-rule="evenodd" fill="#fff" fill-rule="evenodd"/>
				</g>
			</mask>
			<path d="m78 51.4c0-9.7-7.9-17.6-17.6-17.6s-17.6 7.9-17.6 17.6c0 2.6 0.6 5.1 1.6 7.4 0.2 0.5 0.8 0.7 1.3 0.5s0.7-0.8 0.5-1.3c-1-2.1-1.5-4.3-1.5-6.6 0-8.6 7-15.6 15.6-15.6s15.6 7 15.6 15.6-6.9 15.6-15.5 15.6c-2 0-3.9-0.4-5.8-1.1-0.5-0.2-1.1 0-1.3 0.5s0 1.1 0.6 1.3c2.1 0.8 4.3 1.3 6.5 1.3 9.7 0 17.6-7.9 17.6-17.6" clip-rule="evenodd" fill-rule="evenodd" mask="url(#d)"/>
			<defs>
				<filter id="n" x="46.2" y="60.5" width="5.8" height="5.6" filterUnits="userSpaceOnUse">
					<feColorMatrix values="1 0 0 0 0  0 1 0 0 0  0 0 1 0 0  0 0 0 1 0"/>
				</filter>
			</defs>
			<mask id="c" x="46.2" y="60.5" width="5.8" height="5.6" maskUnits="userSpaceOnUse">
				<g filter="url(#n)">
					<polygon points="0 73 118.8 73 118.8 0.9 0 0.9" clip-rule="evenodd" fill="#fff" fill-rule="evenodd"/>
				</g>
			</mask>
			<path d="m51.6 64.3c-1.4-0.9-2.6-2.1-3.6-3.4-0.3-0.4-0.9-0.5-1.4-0.2-0.4 0.3-0.5 1-0.2 1.4 1.1 1.5 2.5 2.8 4.1 3.8 0.2 0.1 0.4 0.2 0.6 0.2 0.3 0 0.6-0.2 0.8-0.4 0.3-0.5 0.2-1.1-0.3-1.4" clip-rule="evenodd" fill-rule="evenodd" mask="url(#c)"/>
			<defs>
				<filter id="m" x="52.1" y="43.1" width="16.6" height="16.6" filterUnits="userSpaceOnUse">
					<feColorMatrix values="1 0 0 0 0  0 1 0 0 0  0 0 1 0 0  0 0 0 1 0"/>
				</filter>
			</defs>
			<mask id="b" x="52.1" y="43.1" width="16.6" height="16.6" maskUnits="userSpaceOnUse">
				<g filter="url(#m)">
					<polygon points="0 73 118.8 73 118.8 0.9 0 0.9" clip-rule="evenodd" fill="#fff" fill-rule="evenodd"/>
				</g>
			</mask>
			<path d="m65.2 52.5c-0.1 0.5-0.5 0.8-1 0.8h-0.2c-0.5-0.1-0.9-0.7-0.7-1.2 0.1-0.2 0.1-0.5 0.1-0.7 0-0.6 0.4-1 1-1s1 0.4 1 1c-0.1 0.3-0.1 0.7-0.2 1.1m-2.1 3c-0.8 0.5-1.7 0.8-2.7 0.8-2.7 0-5-2.2-5-5s2.2-5 5-5c0.6 0 1 0.4 1 1s-0.4 1-1 1c-1.6 0-3 1.3-3 3 0 1.6 1.3 3 3 3 0.6 0 1.1-0.2 1.6-0.5s1.1-0.2 1.4 0.3 0.2 1.1-0.3 1.4m-2.7-12.4c-4.6 0-8.3 3.7-8.3 8.3s3.7 8.3 8.3 8.3 8.3-3.7 8.3-8.3-3.7-8.3-8.3-8.3" clip-rule="evenodd" fill="#B9BBBE" fill-rule="evenodd" mask="url(#b)"/>
			<defs>
				<filter id="w" x="50.1" y="41.1" width="20.6" height="20.6" filterUnits="userSpaceOnUse">
					<feColorMatrix values="1 0 0 0 0  0 1 0 0 0  0 0 1 0 0  0 0 0 1 0"/>
				</filter>
			</defs>
			<mask id="a" x="50.1" y="41.1" width="20.6" height="20.6" maskUnits="userSpaceOnUse">
				<g filter="url(#w)">
					<polygon points="0 73 118.8 73 118.8 0.9 0 0.9" clip-rule="evenodd" fill="#fff" fill-rule="evenodd"/>
				</g>
			</mask>
			<path d="m60.4 59.7c-4.6 0-8.3-3.7-8.3-8.3s3.7-8.3 8.3-8.3 8.3 3.7 8.3 8.3c0 4.5-3.7 8.3-8.3 8.3m10.3-8.3c0-5.7-4.6-10.3-10.3-10.3s-10.3 4.6-10.3 10.3 4.6 10.3 10.3 10.3 10.3-4.7 10.3-10.3" clip-rule="evenodd" fill-rule="evenodd" mask="url(#a)"/>
			<defs>
				<filter id="v" x="55.4" y="46.4" width="9.9" height="9.9" filterUnits="userSpaceOnUse">
					<feColorMatrix values="1 0 0 0 0  0 1 0 0 0  0 0 1 0 0  0 0 0 1 0"/>
				</filter>
			</defs>
			<mask id="j" x="55.4" y="46.4" width="9.9" height="9.9" maskUnits="userSpaceOnUse">
				<g filter="url(#v)">
					<polygon points="0 73 118.8 73 118.8 0.9 0 0.9" clip-rule="evenodd" fill="#fff" fill-rule="evenodd"/>
				</g>
			</mask>
			<path d="m64.3 50.4c-0.6 0-1 0.4-1 1 0 0.2 0 0.5-0.1 0.7-0.1 0.5 0.2 1.1 0.7 1.2h0.2c0.5 0 0.9-0.3 1-0.8 0.1-0.4 0.1-0.8 0.1-1.1 0.1-0.6-0.3-1-0.9-1m-2.3 3.5c-0.5 0.3-1 0.5-1.6 0.5-1.6 0-3-1.3-3-3s1.3-3 3-3c0.6 0 1-0.4 1-1s-0.4-1-1-1c-2.7 0-5 2.2-5 5s2.2 5 5 5c1 0 1.9-0.3 2.7-0.8 0.5-0.3 0.6-0.9 0.3-1.4s-0.9-0.6-1.4-0.3" clip-rule="evenodd" fill-rule="evenodd" mask="url(#j)"/>
		</g>
	</g>
	<rect width="120" height="74" fill="none"/>
</svg>
